<?xml version="1.0" encoding="UTF-8"?>
<svg id="Layer_1" data-name="Layer 1" xmlns="http://www.w3.org/2000/svg" xmlns:xlink="http://www.w3.org/1999/xlink" viewBox="0 0 288.003003 287.267125">
  <defs>
    <style>
      .cls-1 {
        clip-path: url(#clippath);
      }

      .cls-2, .cls-3 {
        fill: none;
      }

      .cls-2, .cls-4, .cls-5 {
        stroke-width: 0px;
      }

      .cls-6 {
        clip-path: url(#clippath-1);
      }

      .cls-3 {
        stroke: #fff;
        stroke-width: 1.362674px;
      }

      .cls-4 {
        fill: #231f20;
      }

      .cls-5 {
        fill: #fff;
      }
    </style>
    <clipPath id="clippath">
      <rect class="cls-2" y=".000632" width="288" height="287.266493"/>
    </clipPath>
    <clipPath id="clippath-1">
      <rect class="cls-2" y=".000632" width="288" height="287.266493"/>
    </clipPath>
  </defs>
  <path class="cls-4" d="m184.079816,162.596233h-82.632085v-37.317036h82.632085v37.317036Zm61.037994,51.707962l-4.843028-5.005682-1.525318-1.580578-1.543769-1.595926-37.633119-38.91908v-46.726849l36.368671-41.162585,1.479283-1.675714,1.46397-1.651175v-.003067l5.674738-6.423605,2.016383-2.298747-5.512072-4.839937-.003067-.006158-6.107476-5.364743-4.668092,5.288035-1.374945,1.556015-1.43634,1.626612-1.439407,1.629703-37.703716,42.678712h-91.041387l-35.79783-42.169242-1.411777-1.660377-1.40871-1.660377-1.672647-1.970372-5.223596-6.156577-11.822113,9.986801,8.77451,10.336695,1.43634,1.694118,1.454744,1.71257,34.336939,40.447482v46.017882l-34.963028,40.005542-1.476239,1.688001-1.460879,1.672652-4.754026,5.438419-4.084935,4.680356,11.677863,10.149473,6.662991-7.617474.316118-.362152,1.430193-1.638893,1.43326-1.638888,35.598331-40.735993h92.195362l39.051066,40.383043,1.513048,1.5591,1.503846,1.556027.917668.951415,6.128971,6.331525,11.14691-10.723387-3.673692-3.802599Z"/>
  <rect class="cls-4" x="103.342284" y="127.174371" width="78.841761" height="33.532835"/>
  <rect class="cls-3" x="103.342284" y="127.174371" width="78.841761" height="33.532835"/>
  <g class="cls-1">
    <path class="cls-4" d="m226.388706,219.925231c-.92687.991315-1.869077,1.967287-2.826621,2.924837-5.091627,5.085481-10.695768,9.701386-16.655939,13.721888-6.012339,4.057334-12.445147,7.543815-19.108138,10.358167-13.869205,5.858887-28.603874,8.826694-43.795866,8.826694s-29.926661-2.967807-43.795854-8.826694c-6.666059-2.814352-13.095799-6.300833-19.108138-10.358167-5.96017-4.020502-11.564323-8.636407-16.655927-13.721888-.844003-.840924-1.675726-1.700271-2.492099-2.571892l35.211628-40.337009h90.599435l38.627518,39.984065Z"/>
    <path class="cls-3" d="m226.388706,219.925231c-.92687.991315-1.869077,1.967287-2.826621,2.924837-5.091627,5.085481-10.695768,9.701386-16.655939,13.721888-6.012339,4.057334-12.445147,7.543815-19.108138,10.358167-13.869205,5.858887-28.603874,8.826694-43.795866,8.826694s-29.926661-2.967807-43.795854-8.826694c-6.666059-2.814352-13.095799-6.300833-19.108138-10.358167-5.96017-4.020502-11.564323-8.636407-16.655927-13.721888-.844003-.840924-1.675726-1.700271-2.492099-2.571892l35.211628-40.337009h90.599435l38.627518,39.984065Z"/>
    <path class="cls-4" d="m84.058906,121.053689v44.673623l-34.260213,39.149269c-3.627661-5.545843-6.764265-11.426208-9.345369-17.503009-5.880371-13.850777-8.863523-28.567053-8.863523-43.73755,0-15.173553,2.983152-29.889829,8.863523-43.740618,2.72228-6.414391,6.070655-12.61088,9.956115-18.426789l33.649467,39.585074Z"/>
    <path class="cls-3" d="m84.058906,121.053689v44.673623l-34.260213,39.149269c-3.627661-5.545843-6.764265-11.426208-9.345369-17.503009-5.880371-13.850777-8.863523-28.567053-8.863523-43.73755,0-15.173553,2.983152-29.889829,8.863523-43.740618,2.72228-6.414391,6.070655-12.61088,9.956115-18.426789l33.649467,39.585074Z"/>
    <path class="cls-4" d="m256.412658,143.634792c0,15.170497-2.980085,29.883694-8.860456,43.734483-2.538122,5.975513-5.616434,11.760742-9.16736,17.223712l-36.91804-38.13033v-45.296644l35.6904-40.343144c4.072688,6.003137,7.568378,12.420584,10.394999,19.077441,5.880371,13.850789,8.860456,28.563986,8.860456,43.734483"/>
    <path class="cls-3" d="m256.412658,143.634792c0,15.170497-2.980085,29.883694-8.860456,43.734483-2.538122,5.975513-5.616434,11.760742-9.16736,17.223712l-36.91804-38.13033v-45.296644l35.6904-40.343144c4.072688,6.003137,7.568378,12.420584,10.394999,19.077441,5.880371,13.850789,8.860456,28.563986,8.860456,43.734483Z"/>
    <path class="cls-4" d="m224.804452,65.676021l-37.295541,42.261323h-89.377931l-35.414194-41.761055c.567785-.595404,1.144773-1.178537,1.72176-1.758604,5.094683-5.085469,10.698836-9.704436,16.658994-13.724932,6.012339-4.057351,12.442079-7.540748,19.108138-10.3551,13.869205-5.858899,28.603885-8.826691,43.795866-8.826691s29.926661,2.967792,43.795866,8.826691c6.666047,2.814352,13.095787,6.297748,19.111194,10.3551,5.957103,4.020496,11.561244,8.639463,16.652871,13.724932.417401.417401.83171.834801,1.242976,1.258337"/>
    <path class="cls-3" d="m224.804452,65.676021l-37.295541,42.261323h-89.377931l-35.414194-41.761055c.567785-.595404,1.144773-1.178537,1.72176-1.758604,5.094683-5.085469,10.698836-9.704436,16.658994-13.724932,6.012339-4.057351,12.442079-7.540748,19.108138-10.3551,13.869205-5.858899,28.603885-8.826691,43.795866-8.826691s29.926661,2.967792,43.795866,8.826691c6.666047,2.814352,13.095787,6.297748,19.111194,10.3551,5.957103,4.020496,11.561244,8.639463,16.652871,13.724932.417401.417401.83171.834801,1.242976,1.258337Z"/>
    <path class="cls-4" d="m187.152894,107.225297l36.678654-41.515535c-.282365-.2885-.564706-.573908-.850138-.85934-5.06093-5.04557-10.622104-9.62466-16.533172-13.608324-5.969372-4.023587-12.353078-7.479376-18.97309-10.269166-13.761787-5.806706-28.38905-8.753027-43.473613-8.753027s-29.711826,2.94632-43.479748,8.753027c-6.613878,2.789789-12.997577,6.245579-18.96695,10.269166-5.91413,3.986731-11.478389,8.565822-16.53624,13.608324-.45116.451165-.896173.902308-1.341192,1.359608l34.821864,41.015267h88.653626Zm-5.680884,20.65803h-77.411568v32.111856h77.411568v-32.111856Zm56.778101,75.567042c3.342249-5.229719,6.257872-10.760213,8.673251-16.450306,5.822043-13.73109,8.774498-28.321532,8.774498-43.366184s-2.952455-29.635106-8.774498-43.366196c-2.697744-6.362222-6.01543-12.509609-9.867125-18.279483l-34.874027,39.471522v44.692039l36.067901,37.298608ZM50.501818,82.6542c-3.661429,5.576534-6.831786,11.499861-9.422101,17.613483-5.822055,13.73109-8.777589,28.321532-8.777589,43.366196s2.955534,29.635094,8.777589,43.366184c2.449132,5.779094,5.420015,11.392455,8.826691,16.695832l33.437699-38.262305v-44.090489l-32.84229-38.688902Zm12.411382,137.602485c.690546.730445,1.393367,1.448609,2.105396,2.160638,5.054784,5.039441,10.619037,9.61852,16.53624,13.605262,5.969372,4.023575,12.349999,7.479365,18.96695,10.272236,13.767922,5.806709,28.395185,8.753033,43.479748,8.753033s29.711826-2.946323,43.473613-8.753033c6.620012-2.792871,13.003718-6.251731,18.97309-10.272236,5.914136-3.983675,11.47531-8.562754,16.533172-13.605262.819441-.819447,1.626612-1.651169,2.421514-2.492099l-37.983013-39.272024h-89.89662l-34.61009,39.603484Zm85.431094,66.418106c-1.927381,0-3.538656-1.000522-4.35503-2.55348-.82252,1.571372-2.424581,2.55348-4.333558,2.55348-2.056282,0-3.744278-1.129424-4.505414-2.829698-.865487,1.420987-2.381614,2.2834-4.164746,2.2834-1.402575,0-2.737632-.564712-3.66449-1.549889-.42967-.454224-.758069-.985176-.979039-1.565234-.88697,1.27674-2.320231,2.031735-3.974473,2.031735-1.467025,0-2.848105-.610748-3.787245-1.675721-.451165-.509468-.776486-1.095664-.972905-1.730965-.89924,1.129424-2.243511,1.78314-3.781122,1.78314-1.506913,0-2.964736-.675199-3.900797-1.804623-.466502-.564712-.788767-1.209221-.957568-1.899765-.893105.97597-2.157565,1.549889-3.560128,1.549889-1.568308,0-3.066019-.721236-4.008226-1.933525-.48493-.623025-.797969-1.331984-.92687-2.086979-.88697.862414-2.053215,1.341191-3.336097,1.341191-1.629685,0-3.164229-.77341-4.109509-2.068564-.491053-.675199-.788755-1.451678-.877757-2.261916-.859346.739649-1.930455,1.135561-3.102845,1.135561-1.666518,0-3.277787-.843998-4.201584-2.203603-.503329-.73658-.77648-1.568304-.819447-2.430716-.807165.60461-1.79848.945279-2.854246.945279-1.724827,0-3.369862-.899243-4.287518-2.347852-.509469-.797962-.758064-1.694136-.742715-2.608723-.773412.509468-1.65731.77648-2.60259.77648-1.752446,0-3.46193-.972902-4.358103-2.479822-.515604-.868551-.733513-1.829176-.656781-2.79287-.715097.40819-1.509992.623025-2.341715.623025-1.810762,0-3.547864-1.031212-4.428694-2.624068-.506396-.920727-.687472-1.945803-.546296-2.952461-.641438.313045-1.344259.475708-2.077772.475708-1.866004,0-3.62459-1.086457-4.483937-2.765247-.506396-.994385-.644505-2.080842-.426603-3.124332-.576987.239389-1.181599.362152-1.801553.362152-1.899763,0-3.722806-1.172391-4.545314-2.915632-.500267-1.061903-.589269-2.203602-.294634-3.280854-.491053.168801-1.000523.254735-1.522262.254735-1.951944,0-3.79647-1.230704-4.588293-3.059878-.484907-1.120216-.518672-2.329436-.141171-3.434309-.405119.110488-.82252.165733-1.246055.165733-2.004113,0-3.860909-1.285949-4.618967-3.197991-.475716-1.193874-.454233-2.45834.01227-3.587764-.316118.064451-.632236.09821-.954488.09821-2.031731,0-3.888527-1.319708-4.625113-3.280854-.494121-1.289017-.423535-2.630202.150385-3.790318-.22097.030692-.438872.046034-.656775.046034-2.090059,0-4.01744-1.43326-4.686496-3.486481-.435817-1.328916-.279286-2.710002.377489-3.860909-.122755.009202-.245521.012275-.368287.012275-1.16011,0-2.289534-.432743-3.185706-1.221499-1.196954-1.064973-1.835312-2.630208-1.70949-4.186235.064451-.804098.322264-1.549886.748867-2.200532h-.058316c-2.218948,0-4.170892-1.552959-4.741745-3.771908-.383636-1.491576-.079788-2.955534.78262-4.09416-2.185183-.110491-4.023575-1.688001-4.520763-3.910017-.343736-1.543751.058316-3.059878,1.018939-4.189302-2.090047-.236324-3.833291-1.856802-4.250691-4.026642-.313039-1.629685.171868-3.179577,1.242988-4.278304-2.01026-.362152-3.615388-1.98263-3.95299-4.118723-.270083-1.687995.319185-3.280854,1.497711-4.35503-1.936583-.466502-3.412823-2.093115-3.679827-4.204645-.224049-1.770862.454221-3.385204,1.737097-4.407211-1.841447-.567785-3.185706-2.185195-3.382125-4.256826-.174947-1.826099.616887-3.477273,2.004113-4.45938-1.755525-.653719-2.980085-2.26805-3.108986-4.308995-.119699-1.918179.782609-3.584691,2.286466-4.493145-1.666512-.751923-2.780587-2.360131-2.84197-4.318209-.058316-1.961146.969825-3.652209,2.578033-4.496212-1.620477-.853206-2.639416-2.535054-2.578033-4.496212.064451-1.961146,1.184661-3.572409,2.829689-4.318198-1.497711-.914589-2.393884-2.578033-2.274185-4.490077.128901-2.044013,1.359608-3.66449,3.121256-4.312063-1.405642-.988242-2.19133-2.630214-2.016383-4.450178.196419-2.071631,1.540678-3.689041,3.385193-4.253747-1.279809-1.025085-1.964213-2.645563-1.740164-4.413357.267004-2.117665,1.746311-3.744278,3.689041-4.207713-1.193874-1.077255-1.773929-2.663967-1.506925-4.345828.337601-2.145296,1.945797-3.771908,3.968327-4.127925-1.092592-1.114075-1.568296-2.654753-1.258325-4.281365.417401-2.166779,2.166779-3.787256,4.256826-4.023575-.975972-1.13557-1.36881-2.651686-1.022006-4.195455.497188-2.218948,2.33558-3.793391,4.514628-3.903864-.85934-1.138638-1.163189-2.602584-.779553-4.091093.570853-2.222016,2.522797-3.771919,4.741745-3.771919.021484,0,.042967,0,.064451.003067-.435817-.659842-.690551-1.402551-.755002-2.206655-.125822-1.552971.509469-3.112054,1.697209-4.17396l.785688-.696698h3.124335c-.936072-1.242976-1.224572-2.845026-.724305-4.382636.669056-2.050148,2.59337-3.48342,4.68035-3.48342.224049,0,.445019.015337.662921.046034-.567774-1.16011-.638371-2.50438-.14425-3.805661.739653-1.955011,2.596449-3.268585,4.622046-3.268585.322253,0,.644517.033765.960623.098204-.475705-1.138614-.494121-2.403086-.018404-3.590826.758058-1.912044,2.617921-3.19492,4.618967-3.19492.42967,0,.853206.058327,1.261392.168801-.392838-1.123277-.356006-2.326354.125834-3.440453.791823-1.829178,2.636349-3.056793,4.588293-3.056793.527874,0,1.040411.082867,1.525329.2486-.297702-1.080334-.205621-2.215881.291567-3.271652.822508-1.746311,2.648618-2.918714,4.545314-2.918714.626095,0,1.236841.122766,1.807694.362164-.224043-1.058839-.082867-2.139149.423535-3.127414.856273-1.678781,2.617927-2.765227,4.480864-2.765227.73658,0,1.442469.162642,2.08698.478772-.147317-1.015872.033759-2.034811.537088-2.952455.88083-1.592871,2.617933-2.624079,4.428694-2.624079.837863,0,1.638893.214835,2.350923.619943-.082867-.972881.135036-1.924314.647573-2.786722.893105-1.509981,2.605657-2.482885,4.358103-2.482885.948348,0,1.841453.270072,2.608725.773406-.018416-.920735.230184-1.81075.73658-2.605651.917656-1.448609,2.559617-2.347849,4.287518-2.347849,1.055765,0,2.044007.340669,2.860386.951409.036826-.874677.313045-1.706411.813306-2.436851.923797-1.359608,2.535066-2.203611,4.201584-2.203611,1.181593,0,2.258848.402064,3.10898,1.126368.089007-.816373.383636-1.583645.871622-2.249646.94528-1.295146,2.479824-2.068575,4.109509-2.068575,1.285949,0,2.45834.481863,3.336097,1.328934.131968-.748867.44194-1.454767.92687-2.077778.942207-1.212302,2.439918-1.933539,4.008226-1.933539,1.399496,0,2.667023.573932,3.560128,1.552971.165733-.69054.487998-1.338136.954488-1.899775.93914-1.13248,2.396963-1.807682,3.903876-1.807682,1.546825,0,2.897218.659842,3.787256,1.777008.196419-.641438.521739-1.224572.969837-1.727907.93914-1.064973,2.317152-1.675714,3.784177-1.675714,1.663444,0,3.099784.764204,3.983675,2.025585.217903-.580043.546302-1.104873.972905-1.556015.926858-.985174,2.261915-1.549904,3.661423-1.549904,1.795413,0,3.323821.874701,4.180094,2.280343.767272-1.715614,2.446053-2.826621,4.490066-2.826621,1.927393,0,3.538656,1.000511,4.355042,2.55655.825576-1.574443,2.424569-2.55655,4.333546-2.55655,2.059361,0,3.747357,1.129412,4.508494,2.832756.865475-1.424047,2.381602-2.286478,4.161678-2.286478,1.399496,0,2.734553.56473,3.66449,1.549904.426603.451142.75499.979039.972893,1.552948.883903-1.258313,2.320231-2.022518,3.980608-2.022518,1.467025,0,2.848117.610741,3.790324,1.675714.448086.506402.776474,1.092603.972905,1.727907.896173-1.123301,2.237364-1.777008,3.778042-1.777008,1.509992,0,2.967804.675203,3.903876,1.807682.46957.56473.791823,1.212302.957556,1.908977.902308-.991309,2.163712-1.562173,3.56014-1.562173,1.571375,0,3.069087.724305,4.011294,1.936607.481851.619943.791823,1.322776.923791,2.071619.871633-.840913,2.034811-1.325843,3.317686-1.325843,1.648107,0,3.182651.77343,4.127925,2.068575.491053.672135.785688,1.448609.874689,2.261915.859352-.739642,1.93046-1.138638,3.105907-1.138638,1.666535,0,3.277787.844003,4.20159,2.203611.500267.736574.776474,1.574443.816373,2.439918.825576-.619943,1.807706-.954477,2.857319-.954477,1.727907,0,3.369856.89924,4.287524,2.350917.509469.797969.758046,1.694142.739642,2.608719.776474-.512537,1.663444-.779541,2.605651-.779541,1.752446,0,3.461948.972905,4.358097,2.482885.515604.868543.733507,1.82611.656798,2.786722.712012-.408175,1.506913-.619943,2.338647-.619943,1.81075,0,3.550926,1.031209,4.428694,2.624079.509469.920712.69054,1.948853.546278,2.955522.650664-.322264,1.347338-.481839,2.077778-.481839,1.862942,0,3.621523,1.083378,4.483931,2.762159.509469.9944.647573,2.083912.432761,3.130481.573908-.239398,1.181581-.362164,1.801548-.362164,1.893616,0,3.719727,1.172403,4.542235,2.915646.4972,1.058839.589269,2.20052.294634,3.271629.48493-.162642.9944-.245509,1.519206-.245509,1.951944,0,3.796459,1.227616,4.588293,3.056793.487974,1.120233.521739,2.329445.144238,3.437385.405131-.110497.819441-.165733,1.246044-.165733,2.001046,0,3.85783,1.282876,4.618967,3.19492.475705,1.193874.4573,2.458346-.01227,3.590826.316106-.064439.632236-.098204.9545-.098204,2.025585,0,3.885437,1.316641,4.625102,3.274719.491042,1.298213.420468,2.639416-.147305,3.799526.217903-.030697.435805-.046034.653708-.046034,2.090047,0,4.017428,1.433272,4.686496,3.486487.500267,1.534543.211768,3.136593-.721237,4.379569h3.118188l.782632.693631c1.193851,1.058839,1.832245,2.617921,1.706411,4.170892-.061395.807171-.319197,1.556015-.748867,2.21279.021495-.003067.042967-.003067.061395-.003067,2.218925,0,4.164734,1.549904,4.738642,3.771919.380592,1.488509.079799,2.952455-.779541,4.091093,2.179072.110473,4.017452,1.684916,4.514628,3.903864.346804,1.549904-.049102,3.06911-1.012781,4.198522,2.086956.239386,3.827133,1.856796,4.244533,4.023575.313062,1.62968-.165733,3.179571-1.239909,4.281377,2.010248.362152,3.615388,1.985697,3.95299,4.124846.267004,1.687995-.319197,3.280854-1.494644,4.348895,1.936583.466502,3.409732,2.093115,3.67676,4.204645.22097,1.764727-.460368,3.385204-1.746311,4.410278,1.847582.564718,3.19492,2.182128,3.394418,4.256826.171868,1.82611-.619966,3.474206-2.007204,4.456313,1.752446.653719,2.977018,2.268062,3.105942,4.305928.122743,1.918179-.779565,3.584691-2.28341,4.496212,1.663421.751923,2.77752,2.360131,2.841958,4.312063.061395,1.967293-.960612,3.649153-2.559617,4.499291,1.589803.843992,2.621012,2.531987,2.559617,4.493133-.064439,1.97036-1.190807,3.58777-2.841958,4.330491,1.516139.917656,2.403086,2.574954,2.28341,4.480864-.128924,2.04708-1.359631,3.66449-3.124347,4.31513,1.411777.988253,2.197476,2.630214,2.025608,4.450178-.199498,2.077778-1.546836,3.698255-3.394418,4.262961,1.295146,1.028141,1.970348,2.639416,1.749378,4.404143-.267004,2.108463-1.740176,3.732008-3.673692,4.201578,1.166244,1.058839,1.758581,2.6609,1.488509,4.358097-.340692,2.142228-1.951944,3.765773-3.968327,4.12179,1.089513,1.10794,1.568308,2.651686,1.258313,4.278304-.414333,2.166773-2.157553,3.784183-4.250691,4.023575.960635,1.126351,1.359631,2.645551,1.015872,4.189302-.497176,2.225083-2.338647,3.802599-4.523831,3.910017.865499,1.141699,1.169335,2.605651.788743,4.09416-.573908,2.222016-2.519717,3.771908-4.738642,3.771908h-.06753c.435805.656781.693607,1.402569.755002,2.206673.125834,1.556027-.51256,3.115121-1.706411,4.173954l-.782632.693619h-3.130481c.951433,1.261392,1.230707,2.854246.73353,4.385721-.669068,2.050153-2.596449,3.483414-4.686496,3.483414-.224037,0-.448075-.015343-.672135-.049108.583134,1.175464.653731,2.510515.165733,3.796464-.736574,1.961146-2.593382,3.277781-4.625102,3.277781-.325332,0-.650664-.033759-.969837-.101277.481839,1.144767.500267,2.403092.027607,3.590831-.761137,1.912041-2.617921,3.197991-4.618967,3.197991-.42967,0-.850138-.058313-1.255269-.165733.386727,1.114081.349894,2.320231-.135012,3.434309-.791834,1.829175-2.636349,3.059878-4.588293,3.059878-.524806,0-1.037367-.085934-1.525341-.251664.300769,1.083387.2087,2.222019-.291567,3.277784-.822508,1.743241-2.645551,2.915632-4.539168,2.915632-.626101,0-1.239909-.125831-1.813841-.362152.224061,1.058836.085934,2.139155-.420468,3.124332-.856273,1.67879-2.617921,2.765247-4.483931,2.765247-.736574,0-1.442474-.162663-2.08698-.478778.150396,1.018936-.030697,2.040942-.537076,2.955531-.877768,1.592856-2.617944,2.624068-4.428694,2.624068-.834801,0-1.635838-.214835-2.344782-.616887.079799.966764-.138103,1.924318-.653731,2.789801-.893082,1.503852-2.602584,2.476753-4.35503,2.476753-.951409,0-1.844515-.270081-2.608719-.770342.015337.917658-.230196,1.810762-.736574,2.602586-.920735,1.448609-2.562708,2.347852-4.287524,2.347852-1.055771,0-2.04708-.3376-2.863454-.948348-.036832.868551-.309971,1.700274-.810239,2.430716-.923803,1.362674-2.538145,2.206672-4.20159,2.206672-1.181581,0-2.261915-.40205-3.108974-1.126354-.092081.813308-.386703,1.583649-.874689,2.252709-.942207,1.295154-2.47675,2.068564-4.106442,2.068564-1.289011,0-2.458334-.481847-3.336103-1.331984-.131968.748857-.44194,1.454747-.926858,2.074703-.93914,1.212289-2.43993,1.936594-4.008226,1.936594-1.402575,0-2.667035-.573919-3.563207-1.552958-.165733.693613-.487986,1.338121-.954488,1.902834-.936072,1.129424-2.396963,1.804623-3.903876,1.804623-1.543745,0-2.891084-.656785-3.781122-1.770863-.196419.632232-.521739,1.215358-.969825,1.718688-.93914,1.064973-2.323298,1.675721-3.790324,1.675721-1.663444,0-3.096705-.764202-3.983675-2.022528-.214835.580057-.543223,1.104871-.966758,1.556027-.92687.985177-2.264983,1.549889-3.667557,1.549889-1.792345,0-3.317686-.877759-4.177027-2.280331-.767272,1.71255-2.449132,2.826629-4.493145,2.826629"/>
    <path class="cls-5" d="m97.793368,181.244905h89.374875l37.415216,38.682778c-.678247.712012-1.356517,1.405642-2.022518,2.068552-5.027165,5.014896-10.560733,9.569424-16.447238,13.534683-5.935608,4.002091-12.285548,7.439453-18.86874,10.216973-13.69119,5.7791-28.241733,8.707016-43.243429,8.707016s-29.552227-2.927916-43.246497-8.707016c-6.583186-2.77752-12.933127-6.214881-18.86874-10.216973-5.886512-3.965259-11.420073-8.519787-16.447238-13.534683-.580055-.573908-1.153975-1.163177-1.724827-1.758581l34.079137-38.99275Zm6.85941-52.766795h76.226896v30.927184h-76.226896v-30.927184Zm-54.672705,74.231996c-3.210269-5.076267-6.015407-10.431831-8.354054-15.940836-5.791369-13.660505-8.728487-28.171148-8.728487-43.136012,0-14.961797,2.937118-29.475507,8.728487-43.136012,2.473683-5.834336,5.475252-11.496805,8.940249-16.852369l32.185509,37.915507v43.651616l-32.771704,37.498106Zm152.794472-81.026956l34.217252-38.722655c3.646062,5.551972,6.801083,11.444612,9.385262,17.536751,5.791369,13.660505,8.728487,28.174215,8.728487,43.136012,0,14.964864-2.937118,29.475507-8.728487,43.136012-2.304882,5.429205-5.067065,10.714173-8.225153,15.729068l-35.377362-36.586585v-44.228604Zm-138.29611-55.443055c.319185-.325308.638371-.647573.960623-.969837,5.030233-5.01794,10.5638-9.572468,16.447238-13.537727,5.938681-4.002091,12.288622-7.436409,18.86874-10.213929,13.69427-5.776009,28.2448-8.706992,43.246497-8.706992s29.552239,2.930983,43.243429,8.706992c6.583192,2.774452,12.930065,6.211837,18.86874,10.213929,5.883438,3.965259,11.417006,8.519787,16.447238,13.537727.153464.153464.306904.306927.460368.460368l-36.135431,40.904794h-88.113471l-34.293972-40.395325ZM148.344294,0c-1.795413,0-3.345305.776474-4.34276,2.040945-.997455-1.264472-2.547336-2.040945-4.345828-2.040945-1.94273,0-3.590826.89924-4.572932,2.32331-.997455-1.117143-2.442997-1.777008-4.097228-1.777008-1.562173,0-3.05375.632236-4.09416,1.737109-.257814.273139-.481851.567774-.672135.880812-.985174-.969814-2.33558-1.537611-3.851707-1.537611-1.635826,0-3.179571.684405-4.232275,1.875212-.28542.325332-.527874.675203-.724305,1.049636-.951409-.825576-2.197453-1.298213-3.584691-1.298213-1.681849,0-3.31154.758046-4.361165,2.022518-.316118.377501-.570853.791834-.764204,1.227639-.920724-.696698-2.059361-1.095671-3.293124-1.095671-1.74939,0-3.425104.810239-4.477808,2.163712-.340669.435805-.604606.91151-.791823,1.411777-.865475-.573908-1.893616-.890038-3.001563-.890038-1.816902,0-3.532522.862408-4.591354,2.30795-.356018.491065-.623028,1.028141-.791823,1.592871-.801036-.463435-1.72176-.712035-2.706934-.712035-1.859869,0-3.658355.945275-4.692637,2.461413-.377495.555504-.641438,1.16011-.788755,1.786187-.730439-.362141-1.543751-.558571-2.393884-.558571-1.93046,0-3.765773,1.006669-4.790847,2.627147-.389776.613808-.644511,1.279809-.761131,1.970348-.647579-.276207-1.347332-.417377-2.080845-.417377-1.958073,0-3.870117,1.089513-4.87064,2.774452-.408187.684405-.647579,1.420979-.727372,2.169823-.558571-.19334-1.150907-.294611-1.758586-.294611-2.022529,0-3.965259,1.150907-4.947366,2.93096-.41126.7458-.632236,1.546836-.662927,2.360142-.463429-.128901-.945275-.193363-1.442469-.193363-2.083907,0-4.051193,1.212302-5.011817,3.090582-.417395.816373-.61382,1.687984-.592336,2.55655-.362152-.076732-.733513-.116631-1.10794-.116631-2.123806,0-4.164746,1.310506-5.082402,3.259359-.417401.88697-.583134,1.819975-.503335,2.737643-.254735-.036832-.512537-.05526-.776474-.05526-2.185195,0-4.247624,1.371877-5.131515,3.41589-.411254.951433-.537088,1.96117-.386703,2.934051-.153452-.015337-.303848-.021472-.4573-.021472-2.243499,0-4.321265,1.433249-5.171403,3.566263-.411266,1.031232-.494132,2.105408-.273151,3.124347-.0399,0-.076732-.003067-.116631-.003067-2.271117,0-4.351962,1.470081-5.17755,3.655264-.432738,1.13557-.481839,2.301815-.178003,3.379081-2.26805.101271-4.308995,1.669579-5.030233,3.888527-.441952,1.35654-.337601,2.756048.239386,3.971394h-2.298747l-.33759.300769-.616887.546302c-1.325855,1.184672-2.034811,2.927892-1.896696,4.661934.046034.576999.18107,1.129436.395905,1.641973-2.111531.356006-3.867044,1.958079-4.428694,4.140195-.343736,1.338113-.196419,2.654753.368299,3.784189-2.013327.46957-3.62767,2.077778-4.109509,4.229196-.316118,1.405642-.085934,2.786722.58619,3.934562-1.912033.583134-3.418958,2.215881-3.821009,4.302861-.288488,1.491576.015349,2.921781.788755,4.066542-1.810762.675203-3.182639,2.30795-3.504892,4.361176-.2486,1.552959.150385,3.032254,1.025074,4.17396-1.709479.75499-2.955534,2.378535-3.213336,4.397997-.202566,1.632759.279286,3.155021,1.26446,4.281377-1.602061.825587-2.722271,2.430716-2.909488,4.407211-.162666,1.697197.420468,3.256292,1.51306,4.367311-1.494644.886959-2.495166,2.479818-2.617933,4.410278-.113552,1.795413.57392,3.394407,1.786211,4.468582-1.390293.951421-2.283399,2.51665-2.341715,4.358109-.058316,1.853729.742721,3.483408,2.068564,4.520763-1.322776,1.037343-2.126879,2.667035-2.068564,4.511549.058316,1.847594.954488,3.418969,2.332501,4.370379-1.206144,1.07112-1.887482,2.667046-1.776997,4.456324.122766,1.933516,1.123289,3.526375,2.621,4.413346-1.095659,1.111008-1.678793,2.673169-1.516127,4.373446.190284,1.973416,1.307427,3.581623,2.909488,4.407211-.991309,1.126345-1.467025,2.642484-1.26446,4.275231.257802,2.019462,1.503858,3.643007,3.216404,4.401076-.877757,1.144761-1.276741,2.627135-1.028141,4.180094.32532,2.050148,1.697197,3.67676,3.504892,4.351962-.770339,1.144773-1.077243,2.574966-.791823,4.063475.402052,2.093115,1.912044,3.728941,3.827156,4.308995-.669068,1.144773-.902319,2.522797-.589269,3.92228.478772,2.154509,2.093115,3.768852,4.112576,4.238422-.567785,1.129412-.715102,2.446053-.371366,3.784189.56165,2.182116,2.317164,3.784166,4.425627,4.143262-.211768.509469-.346804,1.058839-.392838,1.632747-.138115,1.743244.57392,3.489555,1.905898,4.674227.865487.764204,1.924314,1.230707,3.032254,1.347315-.383636,1.089536-.408187,2.29568-.024551,3.47115.724305,2.218948,2.771385,3.790324,5.027165,3.888527-.303837,1.077243-.257802,2.240443.174935,3.369856.82252,2.185183,2.903353,3.658355,5.180617,3.658355.0399,0,.076732,0,.116631-.003067-.217903,1.018939-.135048,2.093115.273151,3.121256.847059,2.133014,2.924837,3.569354,5.171403,3.569354.153452,0,.303848-.006135.454233-.018428-.147317.969837-.024563,1.979574.389771,2.930983.883891,2.040945,2.94632,3.41589,5.131515,3.41589.263937,0,.521739-.018404.776474-.055237-.079799.917668.085934,1.85374.503335,2.740687.917656,1.945809,2.958596,3.256315,5.082402,3.256315.374428,0,.748861-.0399,1.111014-.116631-.021484.868543.171868,1.740176.586195,2.553482.960623,1.878279,2.927904,3.090558,5.014884,3.090558.497194,0,.979039-.064439,1.442469-.19334.030692.813306.251667,1.61741.662927,2.363186.982107,1.780076,2.924837,2.930983,4.947366,2.930983.610746,0,1.203083-.101271,1.761654-.294634.076726.755002.319185,1.488509.727378,2.175981.99745,1.681872,2.909494,2.768317,4.867567,2.768317.733513,0,1.436334-.141171,2.083912-.414333.113552.690563.368287,1.35654.758064,1.973439,1.028141,1.614343,2.863459,2.620988,4.790847,2.620988.850132,0,1.663444-.196407,2.393884-.558571.147317.629168.41126,1.230707.788755,1.783143,1.034282,1.522274,2.832768,2.464481,4.692637,2.464481.985174,0,1.908971-.2486,2.706934-.708968.171868.564706.435805,1.101806.791823,1.592847,1.055765,1.448609,2.774452,2.311041,4.591354,2.311041,1.107946,0,2.136087-.31613,3.001563-.893105.187217.500244.451154.972905.791823,1.411777,1.052704,1.353473,2.72535,2.160644,4.477808,2.160644,1.236841,0,2.375468-.395929,3.293124-1.095671.196419.438872.451154.850138.767272,1.230707,1.046557,1.264448,2.676248,2.01945,4.358097,2.01945,1.38417,0,2.630214-.472637,3.584691-1.298213.196431.371343.438884.724305.721237,1.046546,1.052704,1.190807,2.596449,1.875212,4.235343,1.875212,1.516127,0,2.863465-.564706,3.848639-1.534543.190284.31613.417389.610764.672124.883903,1.037355,1.101806,2.531999,1.734041,4.097239,1.734041,1.660377,0,3.112054-.666001,4.109497-1.780076.979039,1.433249,2.624079,2.326354,4.560663,2.326354,1.795425,0,3.348372-.773406,4.34276-2.037855.997455,1.261381,2.547347,2.037855,4.345828,2.037855,1.945797,0,3.593905-.89924,4.576011-2.323287.997455,1.117143,2.446065,1.777008,4.09416,1.777008,1.565229,0,3.059873-.632236,4.100295-1.734041.254735-.273139.481851-.570841.672135-.883903.982107.969837,2.329433,1.534543,3.84556,1.534543,1.638893,0,3.179571-.684405,4.235343-1.875212.28542-.322241.530953-.675203.727372-1.046546.951421.828643,2.194397,1.298213,3.578556,1.298213,1.68186,0,3.31154-.755002,4.361165-2.01945.316118-.380568.570853-.794902.767272-1.233774.920735.702809,2.059361,1.098738,3.293136,1.098738,1.749378,0,3.425104-.810239,4.477796-2.166779.340669-.435828.604617-.908466.791823-1.40871.865487.580043,1.896696.896173,3.001569.896173,1.816896,0,3.532522-.862431,4.588281-2.311041.359085-.491042.623034-1.031209.794902-1.595915.801036.463435,1.718681.712035,2.703855.712035,1.862942,0,3.661423-.942207,4.695699-2.464481.377501-.552437.641438-1.153975.785699-1.783143.730439.362164,1.543745.558571,2.396951.558571,1.924314,0,3.759626-1.003579,4.787767-2.620988.392861-.616899.647573-1.282876.764204-1.970372.644505.270095,1.347338.411266,2.080845.411266,1.958079,0,3.870123-1.086445,4.867567-2.768317.405131-.687472.650664-1.424047.727372-2.175981.558595.193363,1.150907.294634,1.758604.294634,2.025585,0,3.968327-1.150907,4.950433-2.930983.411266-.742709.632236-1.54988.66291-2.363186.463435.128901.945298.19334,1.439407.19334,2.08698,0,4.054261-1.212279,5.014896-3.087491.417401-.816373.613808-1.688007.592336-2.55655.362141.076732.736574.116631,1.111008.116631,2.120745,0,4.158599-1.307439,5.076267-3.253248.420468-.886947.583134-1.826087.506402-2.743755.251644.036832.512537.055237.773406.055237,2.185183,0,4.250691-1.374945,5.134571-3.41589.411266-.951409.534032-1.961146.386727-2.930983.150373.012293.303837.018428.457277.018428,2.243487,0,4.321265-1.43634,5.171427-3.569354.408175-1.028141.491042-2.105384.270072-3.121256.0399.003067.079799.003067.119699.003067,2.277252,0,4.358097-1.473172,5.180605-3.661423.42967-1.13248.475728-2.292613.171868-3.366788,2.25578-.095136,4.305928-1.669579,5.030233-3.888527.44194-1.359608.337601-2.762183-.236307-3.977529h2.29568l.334511-.297702.613808-.546302c1.335069-1.181605,2.047104-2.924848,1.905909-4.661957-.046034-.580043-.178003-1.129412-.392838-1.641949,2.105384-.356006,3.863988-1.958079,4.425627-4.140195.343736-1.338136.19334-2.657844-.374434-3.787256,2.019474-.46957,3.633816-2.080845,4.115656-4.238422.309971-1.399484.079799-2.777508-.589269-3.92228,1.915112-.580055,3.425092-2.215881,3.827156-4.308995.282365-1.488509-.021472-2.918702-.794902-4.063475,1.810773-.675203,3.179583-2.301815,3.507959-4.351962.2486-1.556027-.147305-3.038401-1.025074-4.183162,1.712546-.755002,2.955522-2.378547,3.210281-4.398009.205633-1.635826-.273163-3.151953-1.255269-4.27831,1.599006-.828643,2.716148-2.433783,2.903377-4.404132.162642-1.700277-.423535-3.262438-1.516139-4.373446,1.497711-.88697,2.495178-2.479829,2.617921-4.413346.113564-1.792357-.570841-3.391351-1.78312-4.462459,1.390282-.954488,2.283387-2.522785,2.341715-4.364244.055213-1.847582-.748867-3.480341-2.074734-4.517696,1.332001-1.034276,2.133038-2.663967,2.074734-4.514617-.058327-1.844526-.957568-3.415902-2.33558-4.367311,1.209211-1.07112,1.890549-2.667035,1.776985-4.45938-.122743-1.933528-1.12021-3.523319-2.617921-4.410278,1.092603-1.11102,1.678781-2.673181,1.516139-4.367311-.187229-1.976495-1.307462-3.581623-2.912579-4.407211.985174-1.129424,1.470104-2.651698,1.264472-4.281377-.257802-2.022529-1.503869-3.646074-3.219483-4.401064.88697-1.14784,1.279809-2.621,1.034276-4.170892-.325308-2.056294-1.697186-3.685974-3.504892-4.361176.770362-1.144761,1.074199-2.574966.785676-4.066542-.398949-2.090047-1.912021-3.725861-3.824065-4.305928.67827-1.14784.905375-2.52892.589245-3.931494-.481839-2.151419-2.093091-3.759626-4.109474-4.232264.567774-1.126368.715079-2.443009.371343-3.781122-.561639-2.182116-2.320243-3.787256-4.425627-4.143262.214835-.512537.349894-1.064973.392838-1.64504.141194-1.734041-.570841-3.477262-1.905909-4.658866l-.613808-.546302-.334511-.297702h-2.29568c.573908-1.212302.678247-2.614854.236307-3.971394-.721237-2.218948-2.771385-3.790324-5.027165-3.888527.303837-1.074176.254735-2.240443-.174935-3.37599-.825599-2.185207-2.909488-3.658355-5.180605-3.658355-.0399,0-.079799.003067-.119699.003067.22097-1.018939.138103-2.093115-.273163-3.124347-.847071-2.129923-2.924848-3.566263-5.168336-3.566263-.15344,0-.306904.006135-.454233.021472.144261-.972881.021495-1.985685-.392838-2.937118-.883903-2.040945-2.94632-3.412823-5.131504-3.412823-.263937,0-.521763.018428-.779565.05526.08289-.920735-.079776-1.85374-.497176-2.737643-.917668-1.948853-2.95859-3.259359-5.079334-3.259359-.377501,0-.748867.0399-1.114075.119699.024539-.874701-.171868-1.746311-.592336-2.562684-.960635-1.875212-2.927916-3.087514-5.011828-3.087514-.4972,0-.979039.064462-1.439407.193363-.030674-.813306-.254735-1.61741-.66291-2.360142-.982107-1.780052-2.924848-2.93096-4.950433-2.93096-.607697,0-1.200009.101271-1.758604.294611-.076708-.748844-.322241-1.485418-.727372-2.169823-.997444-1.68494-2.909488-2.774452-4.867567-2.774452-.733507,0-1.433249.141171-2.080845.41431-.116631-.687472-.371343-1.353473-.764204-1.970348-1.021983-1.61741-2.857319-2.624079-4.787767-2.624079-.853206,0-1.666512.196431-2.396951.561662-.144261-.632236-.408198-1.233774-.785699-1.789278-1.034276-1.516139-2.832756-2.461413-4.695699-2.461413-.985174,0-1.905886.2486-2.703855.712035-.171868-.56473-.435817-1.101806-.794902-1.592871-1.055759-1.445542-2.768317-2.30795-4.588281-2.30795-1.111008,0-2.139149.31613-3.004636.890038-.184138-.500267-.448086-.972905-.788755-1.40871-1.049625-1.35654-2.72535-2.166779-4.477796-2.166779-1.233774,0-2.375468.395905-3.293136,1.095671-.196419-.435805-.454221-.850138-.770339-1.230707-1.043478-1.261404-2.673169-2.01945-4.358097-2.01945-1.384159,0-2.627135.472637-3.581623,1.298213-.196419-.374434-.438884-.727372-.727372-1.049636-1.052704-1.190807-2.596449-1.875212-4.232275-1.875212-1.516127,0-2.866521.567797-3.848628,1.537611-.190284-.313039-.414333-.607673-.672135-.880812-1.040422-1.104873-2.535066-1.737109-4.097228-1.737109-1.651175,0-3.102851.662933-4.100307,1.773941-.979039-1.42407-2.627135-2.320243-4.569865-2.320243m-4.34276,255.639556c15.161295,0,29.86529-2.961657,43.706865-8.799061,6.653777-2.808217,13.068169-6.282411,19.071306-10.32747,5.947901-4.008226,11.539748-8.608789,16.622174-13.678921.957544-.9545,1.896684-1.927381,2.820487-2.915646l-38.550798-39.858213h-90.418353l-35.141043,40.211175c.813306.868543,1.645028,1.724816,2.485958,2.562684,5.082408,5.070132,10.674285,9.670695,16.622174,13.678921,6.003131,4.045058,12.420596,7.519253,19.071312,10.32747,13.844642,5.837404,28.548637,8.799061,43.70992,8.799061m-40.536495-95.052669h78.599308v-33.293449h-78.599308v33.293449Zm-53.629215,44.0905l34.103688-39.023436v-44.529373l-33.496009-39.456185c-3.86705,5.797504-7.200073,11.972509-9.910075,18.368485-5.85582,13.804755-8.823624,28.474984-8.823624,43.59638,0,15.124451,2.967804,29.791613,8.823624,43.596368,2.568819,6.058374,5.693154,11.917261,9.302396,17.447761m188.509446-.27623c3.532498-5.44761,6.598517-11.214428,9.124369-17.171531,5.852764-13.804755,8.823624-28.474984,8.823624-43.596368s-2.970859-29.791625-8.823624-43.59638c-2.811284-6.635361-6.294681-13.034415-10.348941-19.019125l-35.533893,40.21731v45.155462l36.758465,38.010631ZM98.223038,107.82008h89.19994l37.218809-42.132422c-.408198-.420468-.822508-.837845-1.239909-1.255246-5.082425-5.067065-10.674273-9.670695-16.622174-13.678921-6.003137-4.045058-12.417528-7.519253-19.071306-10.324402-13.841575-5.840471-28.54557-8.802152-43.706865-8.802152s-29.865278,2.961681-43.70992,8.802152c-6.650716,2.80515-13.06818,6.279344-19.071312,10.324402-5.947889,4.008226-11.539766,8.611856-16.622174,13.678921-.580055.580043-1.150907,1.163177-1.718687,1.752446l35.343597,41.635222ZM148.344294,1.184672c2.479818,0,4.348895,1.862942,4.348895,4.330491v.082867h.024551l.003067-.021495.006147-.061371c.28542-2.228174,2.04708-3.784189,4.287512-3.784189,1.239909,0,2.415367.497176,3.231741,1.362675.804104.853206,1.203088,2.004113,1.126357,3.240955l-.003067.076732c.006135,0,.012281.003067.021484.003067,0-.003067.015349-.079799.015349-.079799.408187-2.105408,2.108463-3.523319,4.226129-3.523319,1.298225,0,2.513583.5371,3.345305,1.473172.810239.914577,1.166256,2.126879,1.006658,3.406688l-.009202.076708c.006135.003067.015349.003067.024551.006158,0-.003091.018416-.070597.018416-.070597.503323-1.982641,2.136082-3.265517,4.155543-3.265517,1.331978,0,2.621.595404,3.446588,1.592871.807171.972905,1.117143,2.225083.87161,3.532522,0,0-.018404.101271-.018404.104338.009202.003067.015337.003067.021484.006135.003067-.003067.033753-.098204.033753-.098204.598471-1.813841,2.19133-2.983152,4.066542-2.983152,1.387226,0,2.713069.638371,3.541724,1.706411.804104,1.037343,1.061906,2.344782.727372,3.679827l-.015349.06753s-.01227.0399-.01227.042967c.009202.003067.018416.006135.024551.009202.003067-.006135.042967-.101271.042967-.101271.672135-1.678805,2.182128-2.722283,3.943776-2.722283h.018416c1.442474,0,2.795936.684405,3.627658,1.823043.801036,1.098715,1.006658,2.50129.564718,3.85783l-.024551.073664c.009202.003067.015349.006135.024551.009202,0-.003067.030686-.06753.030686-.06753.739653-1.568285,2.185195-2.504357,3.863976-2.504357,1.473172,0,2.897218.745776,3.713615,1.942718.794878,1.166268.936049,2.624079.392815,3.995957l-.030674.076732.018404.009202.018428-.033765.0399-.064439c.785676-1.402575,2.175981-2.237376,3.725861-2.237376,1.522274,0,2.977018.794902,3.787256,2.07471.773406,1.218437.85934,2.694653.23324,4.063463l-.030674.073664-.02763.058304c.006135.006135.01227.006135.018404.012293.003091-.003091.0399-.061395.0399-.061395.825599-1.298213,2.139172-2.040945,3.612321-2.040945,1.546813,0,3.056817.85934,3.845584,2.191342.77645,1.310483.782609,2.860386.015337,4.250668l-.0399.070597c.009202.006135.015337.009202.024563.015337,0-.003067.046034-.067506.046034-.067506.837845-1.150907,2.099249-1.810773,3.461925-1.810773,1.598982,0,3.133525.908466,3.909999,2.317175.751935,1.362675.681338,2.995422-.187205,4.361165l-.046034.06753c.006135.006135.01227.009202.018404.015337.006158-.006135.0399-.049102.0399-.049102l.0399-.042967c.850138-1.015872,2.010271-1.571375,3.277787-1.571375,1.641973,0,3.19492.957544,3.956057,2.439918.736574,1.439407.586201,3.112054-.398996,4.468594l-.036809.052169-.01227.01536c.006135.003067.01227.009202.015337.01227l.058304-.058327c.847071-.902308,1.961146-1.399484,3.136616-1.399484,1.669579,0,3.277787,1.037343,4.005159,2.574954.705877,1.506937.478772,3.191853-.607673,4.517696l-.04299.055237s-.027607.033765-.030674.036832c.009202.006135.01227.012293.018404.018428,0-.003067.073664-.06753.073664-.06753.837845-.782609,1.853717-1.193874,2.940185-1.193874,1.718681,0,3.342226,1.083401,4.041991,2.700788.681314,1.562173.356006,3.329979-.847071,4.615923,0,0-.064462.070574-.06753.073641.006135.006158.012293.012293.018428.018428.003067-.006135.061371-.052169.061371-.052169.813306-.672135,1.767783-1.028141,2.771385-1.028141,1.761648,0,3.394395,1.135547,4.066554,2.820487.653708,1.635814.242442,3.425092-1.068064,4.677271l-.055237.052193-.030697.030697c.003091.003044.009226.01227.01227.015337.006158-.003067.08289-.055237.08289-.055237.770316-.558595,1.654242-.853206,2.553482-.853206,1.780076,0,3.415867,1.163177,4.069598,2.894128.666001,1.752446.156531,3.596984-1.319708,4.81233,0,0-.058304.049102-.061395.049102.003091.006135.006158.012293.012293.018428l.089001-.055237.06753-.036832c.705877-.426603,1.488509-.653731,2.277252-.653731,1.835312,0,3.529454,1.264472,4.118723,3.075221.580043,1.777008-.04299,3.649153-1.583668,4.775498,0,0-.079799.058327-.079799.061395.003091.009202.009226.015337.01536.024539l.26087-.070574h4.12179l.616875.543234c1.052704.936049,1.620477,2.311017,1.510004,3.682894-.107429,1.34118-.825576,2.498222-2.022518,3.256315l-.07062.046034c.003091.006135.006135.01227.009226.018404.003067,0,.049102-.021495.049102-.021495l.067506-.027607c.604629-.282365,1.233798-.423535,1.869101-.423535,1.945786,0,3.658332,1.36881,4.161667,3.326889.503335,1.945786-.334534,3.842493-2.133014,4.830734,0,0-.064439.036832-.06753.036832.003091.006135.006135.01227.009226.018428.003044,0,.055237-.018428.055237-.018428l.055237-.021472c.534009-.2087,1.080334-.31613,1.632747-.31613,2.004113,0,3.725885,1.417912,4.180094,3.449655.448098,2.001046-.515604,3.940708-2.403086,4.827667,0,0-.070597.030697-.070597.033765.003091.006135.006135.012281.009226.021484l.06753-.024551.033741-.01227c.478772-.144261.933005-.217903,1.390305-.217903,2.037855,0,3.802593,1.500778,4.201566,3.572409.398996,2.080833-.675203,4.014361-2.67009,4.806184l-.058304.021484-.021495.009214c0,.006135.006135.015349.006135.021484.006135,0,.01536-.003067.021495-.003067l.052169-.015349c.395905-.101283.776474-.150385,1.163177-.150385,2.105408,0,3.876258,1.552959,4.216927,3.698243.337601,2.136093-.877768,4.094172-2.955546,4.766296l-.073641.024551c0,.006147.003067.015349.003067.021484.003067-.003067.064439-.01227.064439-.01227l.079799-.012281c.285432-.049102.55246-.073653.819441-.073653,2.175981,0,3.962192,1.608196,4.241489,3.824077.276207,2.182116-1.009713,4.09416-3.133525,4.683429l-.073664.024551s-.09516.027618-.098204.027618c.003044.006147.003044.012281.006135.018416h.006135l.092069-.009202c.184138-.021484.37441-.033765.580043-.033765,2.252736,0,4.048126,1.654242,4.266028,3.937641.214859,2.264983-1.261381,4.219994-3.511026,4.652732l-.0399.006135-.036809.006147c0,.006135,0,.015337.003044.024551h.024563c.156531-.015349.285432-.015349.359073-.015349,2.341715,0,4.152488,1.709479,4.299793,4.069609.150396,2.341715-1.43634,4.259894-3.774963,4.560663,0,0-.089025.012281-.092069.012281,0,.006135,0,.015337.003044.021484h.076755c2.400019,0,4.266028,1.804615,4.342737,4.195443.076732,2.390816-1.672647,4.308995-4.06653,4.45938,0,0-.076732.006135-.082867.006135v.024551c.003067,0,.052193.003067.052193.003067l.076708.006147c2.369345.174935,4.09416,2.080833,4.020496,4.456313-.073664,2.390816-1.942718,4.195443-4.342737,4.195443h-.076755c-.003044.009202-.003044.015337-.003044.024551l.079799.009202c2.344758.294634,3.937629,2.212813,3.787233,4.560663-.147305,2.357063-1.958079,4.069609-4.299793,4.069609-.070574,0-.187205,0-.328376-.012281,0,0-.036832,0-.05526-.003067-.003044.009214-.003044.018416-.003044.024563l.036809.006135.0399.009202c2.249646.42967,3.725885,2.387749,3.511026,4.652743-.217903,2.283399-2.013292,3.940697-4.266028,3.940697-.214812,0-.405108-.018404-.561639-.033753l-.036809-.003067-.079799-.012281c-.003091.006135-.006135.015349-.009226.024551.006135.003067.09516.024551.09516.024551,2.17289.56165,3.492622,2.498246,3.213325,4.70798-.279297,2.215881-2.062417,3.821021-4.241489,3.821021-.263937,0-.530941-.024563-.81635-.073664l-.09516-.01227-.052169-.012281c0,.009202,0,.015349-.003067.021484.003067.003067.089001.030686.089001.030686,2.065508.672135,3.280854,2.633281,2.940185,4.766296-.340669,2.139149-2.11461,3.695176-4.216927,3.695176-.386703,0-.767272-.052169-1.163177-.153452l-.05526-.01227c-.006135-.003067-.01227-.003067-.018404-.006147-.003067.009214-.006135.018416-.009226.024563.003091.003067.089025.036821.089025.036821,1.991844.791823,3.062952,2.719216,2.667046,4.796981-.395929,2.071643-2.163712,3.572421-4.204657,3.572421-.460368,0-.920735-.070585-1.39644-.224049l-.095136-.027618c-.003091.006135-.003091.012281-.009226.021484.006135,0,.06753.030697.06753.030697l.064439.033753c1.841471.896173,2.783678,2.811284,2.341715,4.787767-.454209,2.034811-2.17289,3.452722-4.180094,3.452722-.558548,0-1.117143-.107406-1.660377-.319174l-.079799-.033765c-.006135.006135-.009179.01227-.01227.021495.003091,0,.058327.030674.058327.030674,1.807682.991332,2.645551,2.888016,2.142216,4.833825-.503335,1.961146-2.215881,3.326889-4.161667,3.326889-.626124,0-1.252202-.141194-1.86601-.417401l-.070597-.030697-.049102-.024539c-.003091.006135-.006135.01227-.009226.018404l.07062.046034c1.193851.758069,1.915088,1.915112,2.022518,3.253248.110473,1.371877-.4573,2.74989-1.510004,3.685962l-.616875.543234h-4.170892l-.211768-.064462c-.003067.006135-.01227.01536-.01536.021495l.064462.042967c1.552971,1.129412,2.179049,3.010759,1.599006,4.793902-.589269,1.810773-2.286478,3.075221-4.118723,3.075221-.804104,0-1.611275-.236307-2.33558-.687472l-.067506-.0399s-.02763-.018404-.030697-.018404c-.003067.003067-.009202.009202-.012293.015337.003091.006135.05526.046034.05526.046034,1.482374,1.227639,1.988753,3.069087,1.325843,4.815397-.647573,1.730974-2.286478,2.894151-4.069598,2.894151-.88697,0-1.761671-.2885-2.528943-.83171l-.064439-.042967s-.0399-.030697-.04299-.033765c-.003044.006135-.009179.01227-.01227.018404l.030697.02763.052193.052169c1.31355,1.249111,1.724816,3.038389,1.071108,4.674227-.672159,1.691051-2.304906,2.823554-4.066554,2.823554-1.003602,0-1.958079-.352938-2.768317-1.025074,0,0-.058304-.046034-.064439-.052169-.006135.006135-.012293.01227-.018428.018404l.02763.030697.024563.024563c1.215346,1.285943,1.543722,3.059861.865475,4.631236-.699765,1.614343-2.326378,2.700811-4.045058,2.700811-1.077266,0-2.083912-.405131-2.915646-1.17547l-.058304-.049102s-.0399-.033765-.0399-.036832c-.006135.006135-.009202.01227-.018404.018404.003067,0,.030674.033765.030674.033765l.04299.055237c1.086445,1.332001,1.31355,3.016917.604606,4.520787-.724305,1.540678-2.332512,2.574954-4.002091,2.574954-1.1632,0-2.268073-.487998-3.112054-1.371877l-.052169-.052169s-.02763-.030697-.030697-.033765c-.006135.006135-.018428.015337-.018428.015337l.049125.06753c.988242,1.356517,1.138614,3.023052.40204,4.462436-.758069,1.482374-2.311017,2.439942-3.956057,2.439942-1.276741,0-2.452188-.56473-3.305393-1.595938l-.021495-.027607-.030697-.036832c-.006135.006135-.01227.009202-.018404.015337l.046034.06753c.868543,1.36881.93914,2.998489.187205,4.361165-.776474,1.40871-2.311017,2.320219-3.909999,2.320219-1.362675,0-2.621012-.659842-3.461925-1.813817,0,0-.04299-.061395-.04299-.064462-.009202.006135-.015337.012293-.024539.01536,0,.003067.0399.070574.0399.070574.764204,1.393373.758046,2.943253-.018404,4.253759-.788767,1.32891-2.298771,2.185183-3.845584,2.185183-1.467014,0-2.783654-.739642-3.60923-2.028652l-.021495-.036832-.021495-.033765-.018404.009202c0,.003067.021495.049102.021495.049102l.027607.064462c.635303,1.374945.552437,2.860386-.224037,4.084958-.813306,1.276741-2.264983,2.071619-3.787256,2.071619-1.552948,0-2.943253-.834778-3.725861-2.237353l-.0399-.064462s-.018428-.030674-.018428-.033741c-.006135.003067-.01227.006135-.018404.01227l.030674.073664c.543234,1.371877.402064,2.826621-.392815,3.992866-.816397,1.2031-2.240443,1.945809-3.713615,1.945809-1.678781,0-3.124323-.933005-3.863976-2.498246l-.024551-.049102-.009202-.021472c-.006135,0-.012281.003067-.021484.006135l.024551.073664c.44194,1.356517.236319,2.762159-.564718,3.860897-.831722,1.141705-2.188251,1.823043-3.627658,1.823043-1.770862,0-3.286989-1.040434-3.962192-2.72535,0,0-.0399-.095136-.042967-.098204-.006135,0-.015349.003067-.024551.006135,0,.003067.024551.101271.024551.101271.337601,1.338136.082867,2.651686-.724305,3.689053-.831722,1.068041-2.154498,1.706411-3.541724,1.706411-1.881347,0-3.477273-1.17547-4.072677-2.998513,0,0-.024551-.073641-.024551-.076708-.006147,0-.015349.003067-.024551.006135,0,.003067.018404.092069.018404.092069.245533,1.310506-.064439,2.565752-.87161,3.541724-.825587.994376-2.11461,1.58978-3.446588,1.58978-2.019462,0-3.65222-1.279809-4.155543-3.265494,0,0-.018416-.064462-.021484-.070597-.009202.003067-.015349.003067-.024551.003067,0,.003067.01227.082867.01227.082867.159598,1.279809-.196419,2.485953-1.006658,3.400553-.828655.936072-2.04708,1.473148-3.345305,1.473148-2.117665,0-3.817942-1.411777-4.226129-3.511026l-.015349-.085934c-.009202,0-.015349,0-.021484.003067l.003067.082867c.076732,1.233774-.322253,2.381614-1.123277,3.23482-.816385.865475-1.994911,1.362675-3.23482,1.362675-2.240432,0-4.002091-1.559106-4.287512-3.787256l-.006147-.058304-.003067-.021495c-.006135,0-.015349.003067-.024551.003067v.076732c0,2.470616-1.869077,4.330491-4.348895,4.330491-2.363198,0-4.183162-1.709479-4.327412-4.063486,0,0-.003067-.067506-.003067-.073641h-.024551c0,.003067-.006147.082867-.006147.082867-.147317,2.347849-1.964213,4.054261-4.327412,4.054261-2.479818,0-4.348895-1.859875-4.348895-4.330491v-.076732c-.006135,0-.015337-.003067-.024551-.003067l-.003067.018428-.006135.058304c-.279286,2.22815-2.044013,3.790324-4.287512,3.790324-1.236841,0-2.415379-.4972-3.231752-1.362675-.804104-.853206-1.203077-2.001046-1.126357-3.237887l.006135-.079799c-.006135-.003067-.015337-.003067-.024551-.003067l-.015337.085934c-.408198,2.099249-2.105396,3.511026-4.22614,3.511026-1.295157,0-2.513583-.537076-3.342237-1.476216-.79489-.896173-1.150907-2.077778-1.009725-3.329956l.003067-.076732s.009214-.06753.009214-.073664c-.006147,0-.012281,0-.021495-.003067,0,.003067-.009202.049102-.009202.049102l-.021484.070597c-.518672,1.955011-2.142228,3.216392-4.149409,3.216392-1.331978,0-2.620988-.595404-3.443508-1.58978-.807171-.972905-1.117154-2.231218-.874689-3.538656,0,0,.018416-.092069.018416-.095136-.006147-.003067-.015349-.006135-.021484-.006135-.003067.003067-.02763.076708-.02763.076708-.592336,1.823043-2.191318,2.998513-4.069598,2.998513-1.387238,0-2.710013-.638371-3.538656-1.703344-.807171-1.040434-1.068053-2.350917-.730451-3.69212,0,0,.024551-.098204.024551-.101271-.006135-.003067-.018404-.006135-.018404-.006135l-.033765.082867c-.67827,1.691051-2.203611,2.740687-3.974467,2.740687-1.442474,0-2.795942-.681338-3.630731-1.823043-.797963-1.098738-1.006658-2.50438-.564712-3.860897l.024551-.073664c-.006135-.003067-.012275-.006135-.01841-.006135l-.006141.018404-.027624.052169c-.739647,1.565241-2.182116,2.498246-3.867044,2.498246-1.473166,0-2.894151-.742709-3.713598-1.945809-.791823-1.166244-.936072-2.620988-.392844-3.992866,0,0,.030692-.070597.033759-.073664-.009202-.006135-.015343-.009202-.021484-.01227,0,.003067-.015343.030674-.015343.030674l-.036832.064462c-.782614,1.402575-2.175981,2.24042-3.728935,2.24042-1.525341,0-2.97395-.794878-3.787256-2.071619-.779547-1.224572-.85934-2.710013-.227111-4.084958l.027618-.064462s.021484-.046034.024557-.049102c-.006141-.003067-.012275-.006135-.018416-.009202l-.046034.076732c-.825587,1.285943-2.139155,2.022518-3.60618,2.022518-1.546819,0-3.056811-.856273-3.845566-2.188251-.779547-1.307439-.785682-2.857319-.021484-4.250691l.0399-.070574c-.006135-.003067-.012275-.009226-.018416-.012293-.003067.003067-.061377.076732-.061377.076732-.837863,1.144773-2.09312,1.79848-3.449655,1.79848-1.595926,0-3.133537-.91151-3.906949-2.320219-.751923-1.362675-.684405-2.992355.187217-4.361165l.042967-.06753c-.006141-.006135-.012275-.009202-.018416-.015337-.003067.006135-.042967.052169-.042967.052169-.862414,1.043478-2.037872,1.608208-3.314613,1.608208-1.645028,0-3.197988-.957568-3.956051-2.443009-.730445-1.433249-.583128-3.096693.395911-4.450166,0,0,.055242-.073664.055242-.076732-.006135-.006135-.012275-.009202-.01841-.015337-.003073.003067-.030692.033765-.030692.033765l-.049108.052169c-.843998.88388-1.948871,1.371877-3.108986,1.371877-1.672652,0-3.283922-1.034276-4.008226-2.574954-.705888-1.503869-.481851-3.188785.604606-4.520787l.042967-.055237s.02763-.033765.030697-.036832c-.003067-.006135-.009214-.009202-.015349-.015337l-.0399.033765-.055237.052169c-.831722.770339-1.838392,1.17547-2.921769,1.17547-1.718693,0-3.342237-1.086469-4.041991-2.700811-.681338-1.571375-.349871-3.345293.862408-4.631236l.024563-.021495.030686-.033765c-.006135-.006135-.012281-.01227-.018416-.018404-.003067.003067-.067518.052169-.067518.052169-.807171.672135-1.764727,1.025074-2.76525,1.025074-1.761648,0-3.397474-1.132503-4.069609-2.823554-.65064-1.635838-.239386-3.425116,1.074187-4.674227l.052169-.052169s.027618-.02763.030697-.030697c-.006147-.003067-.009214-.009202-.012281-.015337-.003067.003067-.064451.046034-.064451.046034-.779553.564706-1.666512.862408-2.571898.862408-1.783131,0-3.418958-1.163177-4.069609-2.894151-.659854-1.727883-.168801-3.557061,1.279809-4.775498l.052181-.046034s.042967-.033765.046034-.0399c-.003067-.006135-.006135-.01227-.012281-.015337l-.058304.036832-.0399.021472c-.724305.451165-1.528408.687472-2.329433.687472-1.838392,0-3.532522-1.264448-4.12179-3.075221-.583122-1.783143.046034-3.66449,1.598994-4.793902h-.073653c-.662921.352938-1.365743.534009-2.080845.534009-1.015872,0-2.007181-.380568-2.789801-1.074176-1.064973-.942207-1.623545-2.320219-1.516127-3.695187.110485-1.335045.828655-2.48902,2.019462-3.247089l.073653-.046034c-.003067-.006135-.006135-.01227-.01227-.018404,0,.003067-.058316.030674-.058316.030674l-.076732.030697c-.604606.273163-1.22456.411266-1.844515.411266-1.948876,0-3.661423-1.36881-4.164757-3.326889-.503323-1.948876.334534-3.842493,2.129947-4.830758l.06753-.033741c-.003079-.009226-.006147-.01536-.009214-.021495l-.052169.024563-.030697.009202c-.543223.211768-1.101794.319174-1.65731.319174-2.010248,0-3.728941-1.417912-4.183162-3.452722-.438872-1.976483.500267-3.891595,2.344782-4.787767l.064451-.033753s.061383-.030697.064451-.030697c-.003067-.009202-.006135-.015349-.009202-.021484l-.092081.027618c-.478772.150385-.936061.224049-1.396428.224049-2.040945,0-3.80874-1.500778-4.204645-3.575489-.395917-2.074698.672124-4.002091,2.663967-4.793914,0,0,.082867-.033753.089001-.036821-.003067-.006147-.006135-.015349-.009214-.024563-.006135.003079-.01227.003079-.021484.006147l-.042967.01227c-.392838.101283-.785676.153452-1.172391.153452-2.102317,0-3.876246-1.556027-4.213847-3.695176-.337601-2.126879.865475-4.081879,2.930972-4.763217,0,0,.092081-.030697.098215-.033765-.003067-.006135-.003067-.012281-.006135-.021484l-.052181.012281-.095136.01227c-.282365.049102-.549369.073664-.813318.073664-2.182116,0-3.96218-1.608208-4.244545-3.821021-.279286-2.215881,1.049636-4.155543,3.231752-4.714115,0,0,.076732-.015349.079799-.018416-.003067-.009202-.003067-.018416-.006147-.027618l-.085934.015349-.036821.003067c-.156531.015349-.343748.033753-.56165.033753-2.249634,0-4.045058-1.657298-4.262961-3.940697-.214835-2.264994,1.258325-4.223073,3.507971-4.652743l.0399-.009202.0399-.006135c-.003079-.006147-.003079-.015349-.003079-.021495h-.058304c-.135048.012281-.254735.012281-.328399.012281-2.341715,0-4.149397-1.712546-4.299781-4.069609-.147317-2.347849,1.44553-4.266028,3.790312-4.560663l.079799-.009202c0-.009214-.003067-.015349-.003067-.024551h-.076732c-2.403086,0-4.269096-1.801559-4.342749-4.195443-.076732-2.375479,1.648096-4.27831,4.017428-4.456313l.073664-.006147s.055237-.003067.058304-.003067v-.024551c-.006135,0-.092069-.006135-.092069-.006135-2.390816-.156531-4.13406-2.07471-4.057328-4.45938.073653-2.390828,1.94273-4.195443,4.342749-4.195443h.076732c0-.006147.003067-.015349.003067-.021484-.003067,0-.095136-.012281-.095136-.012281-2.33558-.300769-3.922292-2.218948-3.774975-4.560663.150385-2.360131,1.958067-4.069609,4.299781-4.069609.073664,0,.205633,0,.362152.015349h.024551c0-.009214,0-.018416.003079-.024551l-.036832-.006147-.042967-.006135c-2.249646-.432738-3.722806-2.390816-3.507971-4.652732.217903-2.283399,2.013327-3.937641,4.262961-3.937641.2087,0,.395917.012281.583134.033765,0,0,.092069.009202.098204.009202.003067-.006135.006147-.01227.006147-.018416-.003079-.003067-.070597-.021484-.070597-.021484l-.07672-.024551c-2.139161-.580055-3.437385-2.498234-3.161167-4.689564.282365-2.215881,2.062429-3.824077,4.244545-3.824077.263949,0,.53402.024551.816385.073653l.079788.012281s.061383.009202.064462.01227c.003067-.006135.003067-.015337.006135-.024551l-.073664-.021484c-2.077766-.669056-3.293124-2.630202-2.955522-4.766296.337601-2.145284,2.111531-3.698243,4.213847-3.698243.386715,0,.779553.049102,1.172391.150385l.042967.012281c.006147.003067.015349.006135.021484.006135.003079-.006135.006147-.015349.006147-.021484l-.021484-.009214-.055248-.021484c-1.997978-.791823-3.072154-2.72535-2.673169-4.806184.398973-2.071631,2.166767-3.572409,4.204645-3.572409.460368,0,.936072.07672,1.405642.224037l.082867.030686c.006135-.009202.006135-.015349.009202-.021484,0-.003067-.070585-.033765-.070585-.033765-1.884414-.886959-2.851184-2.826621-2.40003-4.827667.454233-2.031743,2.175981-3.449655,4.180094-3.449655.552437,0,1.098738.107429,1.629691.31613l.058316.021472.052169.018428c.003067-.006158.006135-.012293.012281-.018428-.006147,0-.070597-.036832-.070597-.036832-1.795413-.985174-2.63327-2.881858-2.129947-4.830734.503335-1.958079,2.215881-3.326889,4.164757-3.326889.629157,0,1.249111.141171,1.850661.417377l.073653.02763.055248.02763.009202-.018404c-.003067-.003091-.070585-.046034-.070585-.046034-1.193874-.758093-1.912044-1.912044-2.019462-3.253248-.107418-1.36881.454221-2.746822,1.503858-3.682894l.616887-.546302h4.127913l.26087.070574c.006147-.009202.009214-.015337.015349-.024539-.003067-.003067-.079799-.061395-.079799-.061395-1.543745-1.126345-2.1637-2.998489-1.586712-4.775498.589269-1.81075,2.283399-3.075221,4.115644-3.075221h.018416c.776474,0,1.556027.227128,2.261915.653731l.067518.033741.089001.058327c.006147-.006135.009214-.012293.015349-.018428-.006135-.003067-.049102-.0399-.049102-.0399l-.049102-.042944c-1.454756-1.218437-1.942742-3.044547-1.279809-4.784723.65064-1.724816,2.286466-2.887993,4.06653-2.887993.905387,0,1.792345.297702,2.571898.85934l.061383.049102c.006135-.003067.009202-.012293.015349-.015337-.003079,0-.030697-.030697-.030697-.030697l-.058316-.052193c-1.310494-1.252178-1.718681-3.041456-1.068041-4.677271.672135-1.68494,2.307961-2.820487,4.069609-2.820487,1.000523,0,1.958079.356006,2.768317,1.028141,0,0,.058316.046034.064451.052169.003067-.006135.009214-.01227.018416-.018428-.003067-.003067-.070585-.073641-.070585-.073641-1.200021-1.285943-1.525341-3.05375-.847071-4.615923.699754-1.617386,2.326366-2.700788,4.041991-2.700788,1.089524,0,2.108463.414333,2.943253,1.196942l.073653.064462c.006135-.003067.012281-.012293.018416-.01536-.006135-.003067-.033765-.0399-.033765-.0399l-.039888-.055237c-1.089536-1.325843-1.313573-3.010759-.607685-4.514628.724305-1.540678,2.332506-2.578021,4.008226-2.578021,1.172391,0,2.286472.497176,3.133537,1.399484l.055248.058327c.006135-.003067.012275-.009202.01841-.015337l-.027618-.036832-.021484-.024563c-.98518-1.359608-1.135565-3.029187-.398985-4.468594.758064-1.485441,2.311023-2.442986,3.952984-2.442986,1.255258,0,2.409232.546302,3.256303,1.543745l.046034.049102s.055242.064462.05831.070597c.006141-.006135.012281-.009202.015349-.015337l-.042967-.06753c-.871622-1.365743-.93914-2.995422-.187217-4.361165.773412-1.40871,2.311023-2.317175,3.906949-2.317175,1.359608,0,2.61486.653731,3.452722,1.795413,0,0,.05831.079799.061383.082867.006135-.006135.012275-.009202.021484-.015337l-.030692-.046034-.012275-.024563c-.767272-1.390282-.761137-2.940185.015343-4.250668.788755-1.332001,2.301815-2.191342,3.848634-2.191342,1.457817,0,2.762177.730439,3.590831,2.004113l.042967.064462.018416.033765c.006141-.006158.012275-.006158.018416-.012293-.003073,0-.027624-.058304-.027624-.058304l-.030692-.073664c-.626089-1.36881-.543228-2.845026.233251-4.063463.810239-1.279809,2.261915-2.07471,3.787256-2.07471,1.549886,0,2.94018.837869,3.725867,2.237376l.0399.067506.015343.030697c.006141-.003067.015349-.006135.021484-.009202l-.033759-.076732c-.543228-1.371877-.398979-2.829689.392844-3.995957.819447-1.196942,2.240432-1.942718,3.713598-1.942718,1.681855,0,3.127396.936072,3.867044,2.504357,0,0,.030692.064462.030692.06753.009208-.003067.015349-.006135.021484-.009202l-.024551-.073664c-.441946-1.35654-.233251-2.759115.564712-3.85783.83479-1.138638,2.188257-1.823043,3.630731-1.823043,1.776991,0,3.299264,1.052704,3.974467,2.740687l.033765.082867c.006135-.006135.01227-.006135.018404-.009202,0-.003067-.01227-.046034-.01227-.046034l-.015349-.06753c-.331455-1.338113-.073653-2.642484.730439-3.679827.831722-1.064973,2.154498-1.703344,3.541735-1.703344,1.872133,0,3.464992,1.169312,4.063463,2.983152,0,0,.033765.092069.033765.095136.009202,0,.015337,0,.021484-.003067,0-.006135-.018416-.104338-.018416-.104338-.242465-1.307439.067518-2.559617.871622-3.532522.825587-.997467,2.114598-1.592871,3.446576-1.592871,2.016394,0,3.643007,1.270606,4.152476,3.240955l.027618.092069c.006147,0,.015349,0,.021495-.003067,0-.003067-.006147-.064439-.006147-.064439l-.006135-.073664c-.14425-1.258313.214835-2.442986,1.012792-3.345293.825587-.936072,2.044013-1.473172,3.33917-1.473172,2.120745,0,3.817942,1.417912,4.22614,3.523319l.015337.079799c.009214,0,.018416-.003067.024551-.003067,0-.003067-.006135-.076732-.006135-.076732-.07672-1.236841.32532-2.387749,1.129424-3.240955.816373-.865499,1.991844-1.362675,3.228685-1.362675,2.243499,0,4.008226,1.556015,4.287512,3.787256l.009202.058304.003067.021495h.021484v-.082867c0-2.467548,1.869077-4.330491,4.348895-4.330491,2.360131,0,4.180094,1.703344,4.327412,4.051193,0,0,.006147.082867.006147.085934h.024551c0-.003067.003067-.082867.003067-.082867.150385-2.347849,1.967281-4.054261,4.327412-4.054261"/>
  </g>
  <polygon class="cls-5" points="110.008951 132.398564 110.008951 137.889164 115.766556 137.889164 115.766556 154.873479 122.337467 154.873479 122.337467 137.889164 128.095083 137.889164 128.095083 132.398564 110.008951 132.398564"/>
  <g class="cls-6">
    <path class="cls-5" d="m139.386559,149.376755h-1.249123v-11.487591h1.249123c4.351962,0,6.47883,2.780587,6.47883,5.748391,0,2.992366-2.126868,5.7392-6.47883,5.7392m.095136-16.978191h-7.881417v22.474915h7.881417c8.074768,0,12.988369-4.775498,12.988369-11.235924,0-6.432796-4.913601-11.238991-12.988369-11.238991"/>
    <path class="cls-5" d="m167.833305,149.377985c-3.722806,0-5.760672-2.716136-5.760672-5.742256,0-2.967815,2.099249-5.745335,6.101341-5.745335,2.630202,0,4.542247.813306,5.760672,1.436328v-5.929473c-1.565229-.810239-3.535589-1.467025-6.417459-1.467025-7.068099,0-12.012409,5.275765-12.012409,11.705505,0,6.524876,4.94431,11.702426,11.699359,11.702426,2.72535,0,5.3218-.589269,6.88704-1.405642v-5.990856c-1.313573.656775-3.409755,1.436328-6.257872,1.436328"/>
    <path class="cls-5" d="m204.595434,227.19651c-1.350406,0-2.188251.79489-2.188251,2.099255s.837845,2.099255,2.188251,2.099255c1.347338,0,2.185183-.79489,2.185183-2.099255s-.837845-2.099255-2.185183-2.099255m-11.481444.30691c-2.145296,0-3.554017-1.773935-3.554017-3.750424,0-1.936595,1.408721-3.750424,3.554017-3.750424,2.1637,0,3.553993,1.813829,3.553993,3.750424,0,1.976489-1.390293,3.750424-3.553993,3.750424m0-11.392449c-4.615911,0-7.844584,3.443514-7.844584,7.642025,0,4.259888,3.228673,7.642025,7.844584,7.642025,4.637395,0,7.862989-3.382137,7.862989-7.642025,0-4.19851-3.225594-7.642025-7.862989-7.642025m-13.890689,11.392449c-2.430716,0-3.759626-1.773935-3.759626-3.750424,0-1.936595,1.36881-3.750424,3.983664-3.750424,1.715614,0,2.961669.530947,3.759626.93914v-3.873185c-1.022006-.527886-2.30795-.957556-4.189297-.957556-4.615899,0-7.844584,3.443514-7.844584,7.642025,0,4.259888,3.228685,7.642025,7.642019,7.642025,1.777008,0,3.47115-.389771,4.493157-.917656v-3.91309c-.859352.429676-2.228162.939146-4.084958.939146m-19.141891-11.085545v6.580125l-8.415437-6.782678h-.205633v14.872789h4.167825v-6.580119l8.458404,6.782678h.184138v-14.872795h-4.189297Zm-15.606314,7.660447v3.403609c-.346804.0399-.736574.061383-1.123277.061383-2.452199,0-3.759638-1.813829-3.759638-3.790318,0-1.936595,1.36881-3.750424,3.983675-3.750424,2.022529,0,3.452722.530947,4.391862.93914v-3.873185c-1.144761-.527886-2.694653-.957556-4.821532-.957556-4.615911,0-7.844584,3.443514-7.844584,7.642025,0,4.259888,3.188774,7.642025,8.050217,7.642025,1.819964,0,3.759626-.408187,5.186752-1.101806v-6.214893h-4.063475Zm-16.035972,7.009789h4.269096v-14.670236h-4.269096v14.670236Zm-6.659924-8.863518c-1.491576-.610752-2.387749-.979039-2.387749-1.506925,0-.592336.733519-.93914,1.939663-.93914,1.368822,0,2.737632.346804,3.636872.93914v-3.913084c-1.022006-.426603-2.535066-.693613-4.005159-.693613-3.492622,0-5.760672,1.853729-5.760672,4.606697,0,2.811284,1.675714,3.790324,4.045058,4.704913,1.571364.613814,2.531987.896173,2.531987,1.509986,0,.52788-.693607.751929-1.98263.751929-1.26446,0-2.897207-.405119-4.266028-1.160115v4.07575c1.141705.48798,2.838903.79489,4.493145.79489,3.839426,0,5.923338-1.672652,5.923338-4.462453,0-2.731485-1.79848-3.728935-4.167825-4.707974m-14.400146,5.278827v-2.182122h4.778565v-3.360653h-4.778565v-1.958073h5.576523v-3.584697h-9.84563v14.670236h10.152546v-3.584691h-5.883438Zm-15.425232,0h-.816373v-7.500848h.816373c2.841976,0,4.229202,1.813829,4.229202,3.750424,0,1.955005-1.387226,3.750424-4.229202,3.750424m.064451-11.085545h-5.149926v14.670236h5.149926c5.269624,0,8.47682-3.118194,8.47682-7.335115,0-4.19851-3.207196-7.335121-8.47682-7.335121m81.143588-13.36587v-11.085539h-4.269107v14.670236h9.296261v-3.584697h-5.027154Zm-11.684022,0v-11.085539h-4.269096v14.670236h9.293194v-3.584697h-5.024098Zm-14.789929-1.123283c.368287-.853206.917656-2.197465,1.040422-2.728418h.042967c.122766.530953.675203,1.875212,1.04349,2.728418h-2.126879Zm1.163189-10.164815h-.202566l-7.476286,14.872795h4.431762l.89924-1.936595h4.474729l.917645,1.936595h4.434841l-7.479365-14.872795Zm-14.685579,11.288099v-2.182116h4.778565v-3.360653h-4.778565v-1.958079h5.576523v-3.584691h-9.84563v14.670236h10.152546v-3.584697h-5.883438Zm-18.365417-11.085539v3.584691h3.759626v11.085545h4.290591v-11.085545h3.756559v-3.584691h-11.806776Z"/>
    <path class="cls-5" d="m193.694349,74.541371l-2.700799,5.156066-2.69772-5.156066h-4.944299l5.46297,9.277857v5.634838h4.361176v-5.634838l5.462959-9.277857h-4.944287Zm-15.867172,0v6.69061l-8.55354-6.89931h-.2087v15.121395h4.235331v-6.69061l8.599586,6.89931h.187205v-15.121395h-4.259882Zm-19.458009,10.127995c.374422-.868566.936072-2.237376,1.058839-2.774452h.042967c.122755.537076.684405,1.905886,1.058827,2.774452h-2.160633Zm1.184672-10.336695h-.2087l-7.602131,15.121395h4.508482l.914589-1.967281h4.545314l.936072,1.967281h4.505426l-7.599052-15.121395Zm-13.022146,7.043548h-.997444v-3.191829h.997444c.936072,0,1.764727.417401,1.764727,1.595915,0,1.203077-.828655,1.595915-1.764727,1.595915m-.230172-6.834848h-5.106964v14.912695h4.339693v-4.431762h.767272c3.719727,0,6.377559-1.678781,6.377559-5.242,0-3.541724-2.657832-5.238933-6.377559-5.238933m-8.618003-.2087l-7.43333,6.132038-7.454802-6.132038h-.10435v15.121395h4.130993v-6.877815l3.42816,2.756024,3.403621-2.756024v6.877815h4.155543v-15.121395h-.125834Zm-25.626868,11.47531c-2.179049,0-3.606174-1.801548-3.606174-3.811796,0-1.967281,1.427126-3.811796,3.606174-3.811796,2.200532,0,3.615377,1.844515,3.615377,3.811796,0,2.010248-1.414844,3.811796-3.615377,3.811796m0-11.579648c-4.686496,0-7.967351,3.501824-7.967351,7.767853,0,4.330491,3.280854,7.767853,7.967351,7.767853,4.714115,0,7.994969-3.437362,7.994969-7.767853,0-4.266028-3.280854-7.767853-7.994969-7.767853m-14.114732,11.579648c-2.47061,0-3.821015-1.801548-3.821015-3.811796,0-1.967281,1.390299-3.811796,4.048126-3.811796,1.743244,0,3.010771.540143,3.821009.954477v-3.934562c-1.037343-.540167-2.344782-.975972-4.256814-.975972-4.692637,0-7.973485,3.501824-7.973485,7.767853,0,4.330491,3.280848,7.767853,7.75865,7.767853,1.813829,0,3.538656-.392838,4.576-.929914v-3.977552c-.877757.435805-2.261915.951409-4.15247.951409m60.282998-24.856529v-2.215881h4.858365v-3.418958h-4.858365v-1.988753h5.668603v-3.646086h-10.011363v14.915762h10.321346v-3.646086h-5.978586Zm-12.110613-11.269677v5.5305h-4.962715v-5.5305h-4.339693v14.915762h4.339693v-5.760672h4.962715v5.760672h4.364244v-14.915762h-4.364244Zm-23.631969,0v3.646086h3.821009v11.269677h4.361176v-11.269677h3.821009v-3.646086h-12.003195Z"/>
    <path class="cls-5" d="m75.174204,152.687686c0,1.881347-1.402569,3.007703-3.992878,3.007703-1.114081,0-2.25578-.205633-3.026119-.53402v-2.746834c.920724.509469,2.022523.78262,2.875729.78262.868554,0,1.335057-.150396,1.335057-.509469,0-.411266-.647579-.60155-1.706411-1.015872-1.598994-.616887-2.72535-1.276741-2.72535-3.170369,0-1.853729,1.528403-3.10284,3.882393-3.10284.991315,0,2.007186.178003,2.697726.466491v2.636349c-.604606-.398985-1.528403-.632224-2.452199-.632224-.810239,0-1.307427.23324-1.307427.632224,0,.356018.607679.604617,1.611269,1.015872,1.595926.659854,2.808211,1.331978,2.808211,3.170369m-9.056875,2.80207h-2.878802v-9.88553h2.878802v9.88553Zm-8.025661,0v-3.817942h-3.29313v3.817942h-2.875735v-9.88553h2.875735v3.66449h3.29313v-3.66449h2.891084v9.88553h-2.891084Zm-7.709543-9.88553v2.415379h-2.535066v7.470151h-2.891081v-7.470151h-2.531996v-2.415379h7.958143Zm7.823101-11.027223v4.434829h-2.805144v-10.023633h.135036l5.671676,4.572932v-4.434829h2.82356v10.023633h-.122766l-5.702362-4.572932Zm-5.063992,4.434829h-2.875735v-9.88553h2.875735v9.88553Z"/>
    <path class="cls-5" d="m210.420545,136.502231c-1.117143-.460356-1.786211-.736574-1.786211-1.129412,0-.441952.549369-.702833,1.4517-.702833,1.021983,0,2.044013.260881,2.716125.702833v-2.924848c-.761137-.319185-1.893616-.518672-2.992355-.518672-2.611786,0-4.308995,1.384159-4.308995,3.44352,0,2.099249,1.252178,2.829689,3.023052,3.517173,1.178537.460356,1.896684.672124,1.896684,1.129424,0,.395905-.518672.561639-1.482351.561639-.945298,0-2.166779-.300769-3.191853-.865487v3.047603c.853206.36522,2.123812.589269,3.360653.589269,2.872656,0,4.431762-1.249123,4.431762-3.333023,0-2.040945-1.344271-2.786733-3.118212-3.517185m4.981131,6.626159h3.191853v-10.968908h-3.191853v10.968908Zm12.144378-10.968908v4.919748l-6.294681-5.0732h-.153464v11.12236h3.118188v-4.925882l6.319243,5.0732h.141194v-11.116225h-3.130481Zm11.100899,8.286536c-1.816908,0-2.808217-1.325855-2.808217-2.802082,0-1.448609,1.022006-2.808217,2.980085-2.808217,1.282876,0,2.212813.398985,2.808217.702821v-2.891072c-.761137-.398985-1.721772-.71817-3.130481-.71817-3.452722,0-5.865034,2.571898-5.865034,5.714638,0,3.182639,2.412312,5.708503,5.714661,5.708503,1.32891,0,2.596426-.2885,3.357563-.684405v-2.924837c-.641438.319185-1.663444.702821-3.056793.702821m8.283457,0v-1.632759h3.575489v-2.510515h-3.575489v-1.467025h4.170892v-2.676237h-7.362745v10.968908h7.58985v-2.682372h-4.397997Zm-25.258592,18.282539c-1.022006,0-1.528408-1.141694-1.528408-2.80207s.506402-2.80515,1.528408-2.80515,1.528408,1.144773,1.528408,2.80515-.506402,2.80207-1.528408,2.80207m0-8.516708c-2.934027,0-4.750935,2.578033-4.750935,5.714638s1.816908,5.714638,4.750935,5.714638c2.930983,0,4.750959-2.578033,4.750959-5.714638s-1.819975-5.714638-4.750959-5.714638m10.907536,8.535124c.933005-1.252178,2.077778-2.636337,2.077778-4.41948,0-2.424581-1.700277-4.115644-4.508494-4.115644-1.172379,0-2.123812.306904-2.470616.503323v2.927916c.319197-.187217,1.144773-.521751,2.013339-.521751,1.101782,0,1.773918.53402,1.773918,1.433272,0,1.049625-.933005,2.409232-2.034811,3.808728l-2.396951,3.047603h8.077847v-2.663967h-2.53201Zm4.720261-9.446646l-1.190807,4.692631h2.50438l1.755513-4.692631h-3.069087Z"/>
  </g>
</svg>