<?xml version="1.0" encoding="utf-8"?>
<!-- Generator: Adobe Illustrator 28.0.0, SVG Export Plug-In . SVG Version: 6.00 Build 0)  -->
<svg version="1.1" id="Layer_1" xmlns="http://www.w3.org/2000/svg" xmlns:xlink="http://www.w3.org/1999/xlink" x="0px" y="0px"
	 viewBox="0 0 404.2 403" style="enable-background:new 0 0 404.2 403;" xml:space="preserve">
<style type="text/css">
	.st0{fill:#FFFFFF;stroke:#231F20;stroke-width:18.7165;stroke-miterlimit:10;}
</style>
<path class="st0" d="M234,16.4l22.9,75.9c11.8,8.9,20.1,15.2,31.9,24.2H366c10.2,31.2,10,30.5,20.2,61.8L321.3,229
	c-4.3,13.8-7.4,23.8-11.7,37.6l24.2,80.1c-26.6,19.2-25.5,18.4-52.1,37.6l-59.5-46.5h-40.4l-59.5,46.5
	c-26.6-19.2-25.5-18.4-52.1-37.6l24.2-80.1c-4.3-13.8-7.4-23.8-11.7-37.6L18,178.2c10.2-31.2,10-30.5,20.2-61.8h77.2
	c11.8-8.9,20.1-15.2,31.9-24.2l22.9-75.9H234z"/>
</svg>
